<svg width="332" height="67" viewBox="0 0 332 67" fill="none" xmlns="http://www.w3.org/2000/svg">
<rect x="1.36424" y="1.36424" width="329.272" height="64.7803" fill="#010914"/>
<rect x="1.36424" y="1.36424" width="329.272" height="64.7803" stroke="#FCF007" stroke-width="0.728477"/>
<path d="M306.495 5.85421V6.09683H306.737H325.905V25.2642V25.5068H326.147H331H331.242V25.2642V1.00171V0.759084H331H306.737H306.495V1.00171V5.85421Z" fill="#FCF006" stroke="#D9D9D9" stroke-width="0.48525"/>
<path d="M306.495 61.658V61.4154H306.737H325.905V42.248V42.0054H326.147H331H331.242V42.248V66.5105V66.7531H331H306.737H306.495V66.5105V61.658Z" fill="#FCF006" stroke="#D9D9D9" stroke-width="0.48525"/>
<path d="M25.5048 61.658V61.4154H25.2622H6.09484V42.248V42.0054H5.85222H0.99972H0.757095V42.248V66.5105V66.7531H0.99972H25.2622H25.5048V66.5105V61.658Z" fill="#FCF006" stroke="#D9D9D9" stroke-width="0.48525"/>
<path d="M25.5048 5.85421V6.09683H25.2622H6.09484V25.2642V25.5068H5.85222H0.99972H0.757095V25.2642V1.00171V0.759084H0.99972H25.2622H25.5048V1.00171V5.85421Z" fill="#FCF006" stroke="#D9D9D9" stroke-width="0.48525"/>
</svg>
