<svg width="18" height="18" viewBox="0 0 18 18" fill="none" xmlns="http://www.w3.org/2000/svg">
<path d="M13.2237 12.0646C13.1612 12.4083 12.383 13.1464 11.7752 13.2938C10.4678 13.6046 8.61503 12.5069 7.41556 11.3443C6.2161 10.1978 5.01842 8.34506 5.18978 6.95152C5.26742 6.31203 5.90553 5.42746 6.217 5.3129C6.35711 5.28003 6.55881 5.28003 6.74622 5.28003C6.96398 5.29599 7.1514 5.3129 7.21387 5.44342L7.91445 7.36094C7.96086 7.50837 7.85198 7.67176 7.71186 7.853C7.51017 8.09903 7.47893 8.11499 7.29151 8.37792C7.1987 8.50845 7.26028 8.67278 7.29151 8.73757C7.4941 9.24559 7.96086 9.81935 8.3812 10.2288C8.81762 10.6391 9.39236 11.0814 9.89124 11.2608C9.92248 11.2608 10.109 11.3425 10.2491 11.3096C10.3732 11.2936 10.4508 11.195 10.5597 11.0476C10.7614 10.7856 10.8399 10.687 11.0113 10.441C11.1514 10.2607 11.2906 10.195 11.4325 10.2767L13.0202 11.0476C13.1451 11.1133 13.1915 11.2767 13.2067 11.5068C13.2388 11.7049 13.2549 11.9181 13.2237 12.0646Z" fill="#01D7F1"/>
<path d="M1.50633 9.26833C1.50633 5.04025 4.93344 1.61314 9.16152 1.61314C13.3896 1.61314 16.8167 5.04075 16.8167 9.26833C16.8167 13.4959 13.3891 16.9235 9.16152 16.9235C4.93344 16.9235 1.50633 13.4964 1.50633 9.26833Z" stroke="#01D7F1" stroke-width="1.46676"/>
</svg>
