<svg width="17" height="18" viewBox="0 0 17 18" fill="none" xmlns="http://www.w3.org/2000/svg">
<path d="M12.3993 10.8323C12.3409 11.1319 11.614 11.7755 11.0462 11.904C9.82493 12.175 8.09426 11.2179 6.97383 10.2043C5.85339 9.20457 4.73463 7.58917 4.89469 6.37415C4.96722 5.81657 5.56328 5.04531 5.85423 4.94542C5.98511 4.91677 6.17352 4.91676 6.34858 4.91676C6.552 4.93068 6.72706 4.94542 6.78542 5.05923L7.43984 6.73112C7.48319 6.85967 7.38148 7.00213 7.2506 7.16015C7.06219 7.37466 7.03301 7.38858 6.85795 7.61783C6.77125 7.73164 6.82877 7.87492 6.85795 7.93141C7.04719 8.37436 7.48319 8.87462 7.87584 9.23159C8.2835 9.58939 8.82038 9.97502 9.28639 10.1314C9.31557 10.1314 9.4898 10.2026 9.62068 10.174C9.73656 10.1601 9.80909 10.0741 9.9108 9.94555C10.0992 9.71711 10.1726 9.63114 10.3326 9.41663C10.4635 9.25943 10.5936 9.20212 10.7261 9.27335L12.2092 9.94555C12.3259 10.0029 12.3692 10.1453 12.3834 10.3459C12.4134 10.5187 12.4284 10.7045 12.3993 10.8323Z" fill="#01D7F1"/>
<path fill-rule="evenodd" clip-rule="evenodd" d="M8.50207 15.8768C7.26605 15.8762 6.0485 15.5821 4.9532 15.0195L0.794922 16.8781L1.95871 12.3046C1.19994 11.1028 0.796956 9.71733 0.794922 8.30332C0.794922 4.13095 4.24126 0.743774 8.50291 0.743774C12.7487 0.743774 16.1959 4.13095 16.1959 8.30332C16.1951 12.4896 12.7487 15.8768 8.50207 15.8768ZM2.33453 8.30395C2.33453 4.96016 5.09727 2.25909 8.50108 2.25909C9.30945 2.25845 10.11 2.41441 10.8569 2.71806C11.6038 3.0217 12.2824 3.46706 12.8538 4.02864C13.4252 4.59021 13.8782 5.25697 14.1869 5.99073C14.4956 6.72449 14.6538 7.51085 14.6526 8.30476C14.6526 11.6486 11.9041 14.3635 8.50108 14.3635C7.19208 14.3696 5.91639 13.9584 4.86551 13.1919L2.98895 14.3635L3.83261 12.2626C2.86469 11.163 2.33281 9.75752 2.33453 8.30395Z" fill="#01D7F1"/>
</svg>
