<svg width="34" height="43" viewBox="0 0 34 43" fill="none" xmlns="http://www.w3.org/2000/svg">
<path d="M1 41.8889V1H33V20.5556L11.6667 41.8889H1Z" stroke="url(#paint0_linear_0_2467)" stroke-width="1.77778"/>
<path d="M23.394 10.2423L17.6878 6.97935C17.1751 6.6858 16.5933 6.53125 16.0011 6.53125C15.4089 6.53125 14.8271 6.6858 14.3143 6.97935L8.61166 10.2423C8.09902 10.5354 7.67332 10.9571 7.37738 11.4649C7.08144 11.9728 6.92569 12.5488 6.92578 13.1352V19.6605C6.92561 20.2468 7.08134 20.8228 7.37729 21.3306C7.67325 21.8383 8.09898 22.2599 8.61166 22.5528L14.3143 25.8181C14.8268 26.1112 15.4081 26.2655 15.9999 26.2655C16.5917 26.2655 17.173 26.1112 17.6855 25.8181L23.3917 22.5551C23.9051 22.2622 24.3314 21.8404 24.6278 21.3322C24.9242 20.824 25.0801 20.2474 25.0799 19.6605V13.1352C25.0799 12.5488 24.9241 11.9728 24.6282 11.465C24.3322 10.9572 23.9066 10.5355 23.394 10.2423ZM16.0055 21.294C15.3936 18.363 13.796 15.7244 11.4738 13.8096C12.9266 14.3277 14.4591 14.5919 16.0031 14.5904C17.5463 14.5915 19.078 14.3273 20.5301 13.8096C18.2095 15.7249 16.6135 18.3635 16.0031 21.294H16.0055Z" fill="white"/>
<defs>
<linearGradient id="paint0_linear_0_2467" x1="17" y1="1" x2="17" y2="41.8889" gradientUnits="userSpaceOnUse">
<stop stop-color="#FCF006"/>
<stop offset="1" stop-color="#FCF006" stop-opacity="0"/>
</linearGradient>
</defs>
</svg>
