<svg width="57" height="46" viewBox="0 0 57 46" fill="none" xmlns="http://www.w3.org/2000/svg">
<path d="M10.6745 1.84024H55.039V31.714L40.7692 44.5243H10.6745V1.84024Z" stroke="#FCF006" stroke-width="1.68048"/>
<path d="M7.81809 1H1.09619V7.04971H3.11276V3.01657H7.81809V1Z" stroke="#FCF006" stroke-width="1.00829"/>
<path d="M7.81809 44.6902H1.09619V38.6405H3.11276V42.6736H7.81809V44.6902Z" stroke="#FCF006" stroke-width="1.00829"/>
<path d="M49.1577 44.6902H55.8796V38.6405H53.8631V42.6736H49.1577V44.6902Z" stroke="#FCF006" stroke-width="1.00829"/>
<path d="M49.1577 1H55.8796V7.04971H53.8631V3.01657H49.1577V1Z" stroke="#FCF006" stroke-width="1.00829"/>
<path fill-rule="evenodd" clip-rule="evenodd" d="M28.967 14.6119C29.905 14.5575 30.2041 14.5443 32.5948 14.5159C34.9855 14.4874 35.2849 14.4943 36.2231 14.5255C37.1613 14.5568 37.8032 14.6988 38.3658 14.9089C38.9549 15.1236 39.4911 15.4637 39.9365 15.9065C40.3898 16.3404 40.7417 16.8676 40.9696 17.4522C41.1939 18.0097 41.3503 18.648 41.4046 19.5836C41.459 20.5232 41.4722 20.8224 41.5006 23.2123C41.5291 25.603 41.5222 25.9023 41.491 26.8413C41.4597 27.778 41.3177 28.4198 41.1068 28.9825C40.8929 29.5725 40.553 30.1087 40.1108 30.554C39.6761 31.0072 39.1481 31.3592 38.5643 31.587C38.0068 31.8113 37.3685 31.9677 36.4329 32.0221C35.4941 32.0765 35.1949 32.0896 32.8042 32.1181C30.4135 32.1465 30.1142 32.1397 29.1752 32.1085C28.2385 32.0772 27.5967 31.9352 27.034 31.7242C26.4441 31.5103 25.9078 31.1705 25.4626 30.7282C25.0096 30.2941 24.6567 29.7663 24.4287 29.1817C24.2052 28.6242 24.0488 27.9859 23.9944 27.0503C23.94 26.1107 23.9269 25.8116 23.8984 23.4217C23.87 21.031 23.8768 20.7316 23.9081 19.7934C23.9393 18.8552 24.0813 18.2133 24.2915 17.6507C24.5059 17.0608 24.8463 16.5248 25.2891 16.08C25.723 15.6271 26.2505 15.2743 26.8348 15.0461C27.3923 14.8227 28.0306 14.6662 28.9662 14.6119L28.967 14.6119ZM36.1707 16.1106C35.2421 16.0792 34.9636 16.0737 32.6137 16.1017C30.2638 16.1296 29.9854 16.1418 29.0578 16.1952C28.1998 16.2446 27.7358 16.3934 27.4268 16.5179C27.0183 16.6828 26.7269 16.8759 26.4225 17.1876C26.1339 17.4752 25.9133 17.8237 25.7769 18.2076C25.6598 18.5194 25.5221 18.9868 25.4931 19.8458C25.4617 20.7744 25.4563 21.0529 25.4842 23.4028C25.5122 25.7527 25.5243 26.0311 25.5777 26.9587C25.6272 27.8167 25.7759 28.2807 25.9004 28.5897C26.0458 28.9696 26.2747 29.3134 26.5702 29.594C26.8577 29.8826 27.2068 30.1033 27.5901 30.2396C27.902 30.3567 28.3693 30.4944 29.2283 30.5234C30.1569 30.5548 30.4347 30.5603 32.7854 30.5323C35.1361 30.5043 35.4136 30.4922 36.3412 30.4388C37.1993 30.3893 37.6632 30.2406 37.9722 30.1161C38.3808 29.9512 38.6721 29.7581 38.9765 29.4463C39.2652 29.1588 39.4859 28.8097 39.6221 28.4264C39.7393 28.1145 39.8769 27.6472 39.9059 26.7882C39.9373 25.8596 39.9428 25.581 39.9148 23.2311C39.8869 20.8812 39.8748 20.6029 39.8213 19.6753C39.7719 18.8173 39.6231 18.3533 39.4986 18.0443C39.3337 17.6358 39.1406 17.3444 38.8289 17.04C38.5413 16.7514 38.1928 16.5308 37.8089 16.3944C37.4971 16.2772 37.0297 16.1396 36.1707 16.1106ZM31.6077 26.0435C32.2386 26.2974 32.9381 26.3243 33.5866 26.1198C34.2352 25.9152 34.7927 25.4918 35.1638 24.9219C35.5349 24.352 35.6966 23.6709 35.6213 22.995C35.546 22.3191 35.2385 21.6903 34.7511 21.216C34.4404 20.9128 34.0663 20.6823 33.6558 20.541C33.2453 20.3997 32.8086 20.3512 32.3771 20.3989C31.9456 20.4467 31.5301 20.5895 31.1604 20.8171C30.7907 21.0448 30.4761 21.3515 30.2393 21.7153C30.0024 22.0791 29.8491 22.4909 29.7905 22.9211C29.7318 23.3512 29.7693 23.789 29.9001 24.2029C30.031 24.6169 30.252 24.9966 30.5473 25.3149C30.8425 25.6332 31.2047 25.882 31.6077 26.0435ZM29.4627 20.1562C29.8777 19.7312 30.3725 19.392 30.9186 19.1581C31.4648 18.9243 32.0516 18.8003 32.6457 18.7932C33.2398 18.7861 33.8294 18.8961 34.381 19.117C34.9325 19.3378 35.4352 19.665 35.8603 20.0801C36.2853 20.4952 36.6245 20.9899 36.8584 21.5361C37.0922 22.0822 37.2162 22.6691 37.2233 23.2632C37.2304 23.8572 37.1204 24.4469 36.8996 24.9984C36.6787 25.55 36.3515 26.0527 35.9364 26.4777C35.0981 27.3362 33.9531 27.8265 32.7534 27.8408C31.5536 27.855 30.3973 27.3921 29.5388 26.5538C28.6803 25.7156 28.19 24.5706 28.1757 23.3708C28.1615 22.171 28.6244 21.0147 29.4627 20.1562ZM38.1808 19.4011C38.2837 19.3017 38.3657 19.1826 38.4217 19.051C38.4778 18.9193 38.5069 18.7777 38.5073 18.6346C38.5077 18.4915 38.4794 18.3497 38.424 18.2178C38.3686 18.0858 38.2873 17.9663 38.1849 17.8663C38.0825 17.7663 37.9611 17.6879 37.8279 17.6357C37.6946 17.5835 37.5522 17.5585 37.4092 17.5623C37.2661 17.5661 37.1253 17.5985 36.995 17.6577C36.8647 17.7169 36.7476 17.8017 36.6506 17.9069C36.4621 18.1117 36.3607 18.3818 36.3681 18.66C36.3754 18.9383 36.4909 19.2027 36.6901 19.3971C36.8892 19.5916 37.1563 19.7008 37.4346 19.7015C37.713 19.7023 37.9806 19.5945 38.1808 19.4011Z" fill="#FCF006"/>
</svg>
