<svg width="27" height="30" viewBox="0 0 27 30" fill="none" xmlns="http://www.w3.org/2000/svg">
<path d="M26.3654 16.3053C26.3654 23.1263 21.2671 28.6793 14.818 29.2478C14.818 29.2478 6.49515 29.4664 3.74992 29.204C2.70411 29.0729 1.83261 28.417 1.44043 27.4551C1.83261 27.63 2.22478 27.7611 2.66054 27.8049C3.57561 27.8923 5.10075 27.936 7.23593 27.936C10.3733 27.936 13.8158 27.8486 13.8158 27.8486H13.8594C17.3018 27.5425 20.4828 25.9684 22.7487 23.3887C24.7096 21.2025 25.9733 18.4478 26.3219 15.562C26.3654 15.7806 26.3654 16.043 26.3654 16.3053Z" fill="white"/>
<path d="M25.3631 13.507C25.3631 20.328 20.2648 25.881 13.7721 26.4057C13.7721 26.4057 5.44923 26.6244 2.70399 26.362C1.22243 26.2308 0.133053 24.8317 0.0894775 23.2576L0.133053 3.58157C0.176628 2.00749 1.30958 0.608305 2.79114 0.477132C5.53638 0.258509 13.8592 0.520856 13.8592 0.520856C20.3084 1.08927 25.3631 6.686 25.3631 13.507Z" fill="white"/>
</svg>
