<svg width="57" height="46" viewBox="0 0 57 46" fill="none" xmlns="http://www.w3.org/2000/svg">
<path d="M10.5783 1.84024H54.9428V31.714L40.6731 44.5243H10.5783V1.84024Z" stroke="#01D7F1" stroke-width="1.68048"/>
<path d="M7.7219 1H1V7.04971H3.01657V3.01657H7.7219V1Z" stroke="#01D7F1" stroke-width="1.00829"/>
<path d="M7.7219 44.6902H1V38.6405H3.01657V42.6736H7.7219V44.6902Z" stroke="#01D7F1" stroke-width="1.00829"/>
<path d="M49.0615 44.6902H55.7834V38.6405H53.7669V42.6736H49.0615V44.6902Z" stroke="#01D7F1" stroke-width="1.00829"/>
<path d="M49.0615 1H55.7834V7.04971H53.7669V3.01657H49.0615V1Z" stroke="#01D7F1" stroke-width="1.00829"/>
<path d="M22.7107 13.3799L29.9081 23.0035L22.6653 30.8279H24.2954L30.6365 23.9775L35.7599 30.8279H41.3071L33.7047 20.663L40.4463 13.3799H38.8162L32.9764 19.6889L28.2579 13.3799H22.7107ZM25.1079 14.5806H27.6563L38.9096 29.627H36.3612L25.1079 14.5806Z" fill="#01D7F1"/>
</svg>
