<svg width="56" height="46" viewBox="0 0 56 46" fill="none" xmlns="http://www.w3.org/2000/svg">
<path d="M36.8185 17.4927C36.8185 17.5594 36.7919 17.6234 36.7447 17.6706C36.6976 17.7178 36.6335 17.7443 36.5668 17.7443L34.9644 17.7453C33.9072 17.7453 33.7139 18.157 33.7139 18.9679V20.65H36.4621C36.5343 20.65 36.6033 20.6812 36.6508 20.7356C36.6984 20.7899 36.7206 20.8621 36.7118 20.9339L36.3204 23.9621C36.3126 24.0228 36.2829 24.0785 36.237 24.1189C36.191 24.1593 36.1319 24.1816 36.0708 24.1815H33.7139V31.7009C33.7139 31.7676 33.6874 31.8317 33.6402 31.8789C33.593 31.926 33.529 31.9526 33.4622 31.9526H30.3355C30.2688 31.9526 30.2048 31.926 30.1576 31.8789C30.1104 31.8317 30.0839 31.7676 30.0839 31.7009V24.1815H27.7194C27.6527 24.1815 27.5887 24.155 27.5415 24.1078C27.4943 24.0606 27.4678 23.9966 27.4678 23.9299V20.9016C27.4678 20.8349 27.4943 20.7709 27.5415 20.7237C27.5887 20.6765 27.6527 20.65 27.7194 20.65H30.0839V18.6682C30.0839 16.0433 31.6724 14.4131 34.2301 14.4131C35.3296 14.4131 36.3013 14.4949 36.5998 14.5344C36.6603 14.5424 36.7158 14.5721 36.756 14.618C36.7962 14.6638 36.8184 14.7228 36.8185 14.7838V17.4927Z" fill="#01D7F1"/>
<path d="M10.2226 1.84024H54.5871V31.714L40.3173 44.5243H10.2226V1.84024Z" stroke="#01D7F1" stroke-width="1.68048"/>
<path d="M7.36619 1H0.644287V7.04971H2.66086V3.01657H7.36619V1Z" stroke="#01D7F1" stroke-width="1.00829"/>
<path d="M7.36619 44.6902H0.644287V38.6405H2.66086V42.6736H7.36619V44.6902Z" stroke="#01D7F1" stroke-width="1.00829"/>
<path d="M48.7058 44.6902H55.4277V38.6405H53.4112V42.6736H48.7058V44.6902Z" stroke="#01D7F1" stroke-width="1.00829"/>
<path d="M48.7058 1H55.4277V7.04971H53.4112V3.01657H48.7058V1Z" stroke="#01D7F1" stroke-width="1.00829"/>
</svg>
