<svg width="30" height="30" viewBox="0 0 30 30" fill="none" xmlns="http://www.w3.org/2000/svg">
<path d="M26.3168 5.58605L17.198 0.674498C16.3786 0.232638 15.4489 0 14.5025 0C13.5561 0 12.6264 0.232638 11.807 0.674498L2.69387 5.58605C1.87464 6.0273 1.19436 6.66204 0.721432 7.42644C0.248505 8.19085 -0.00039714 9.05797 -0.000243915 9.94061V19.7629C-0.000517768 20.6454 0.248342 21.5124 0.721289 22.2767C1.19424 23.041 1.87459 23.6756 2.69387 24.1165L11.807 29.0316C12.626 29.4728 13.555 29.7051 14.5006 29.7051C15.4463 29.7051 16.3753 29.4728 17.1943 29.0316L26.313 24.12C27.1334 23.6791 27.8148 23.0441 28.2884 22.2792C28.762 21.5142 29.0112 20.6463 29.0109 19.7629V9.94061C29.0108 9.058 28.7618 8.19095 28.2889 7.42658C27.816 6.6622 27.1359 6.02744 26.3168 5.58605ZM14.5095 22.2217C13.5318 17.8098 10.9787 13.838 7.26776 10.9558C9.58931 11.7357 12.0384 12.1333 14.5058 12.131C16.9719 12.1327 19.4196 11.735 21.74 10.9558C18.0316 13.8388 15.4811 17.8106 14.5058 22.2217H14.5095Z" fill="#E6E6E6"/>
</svg>
