<svg width="196" height="93" viewBox="0 0 196 93" fill="none" xmlns="http://www.w3.org/2000/svg">
<path d="M193.024 23.4873V5.61789C193.024 3.61978 191.405 2 189.407 2H5.61792C3.61981 2 2.00003 3.61979 2.00003 5.61789V76.2172C2.00003 77.3184 2.5015 78.3595 3.36244 79.046L17.3652 90.2109C18.0059 90.7218 18.8011 91 19.6206 91H189.407C191.405 91 193.024 89.3802 193.024 87.3821V79.5265C193.024 78.5268 192.611 77.5717 191.882 76.8878L188.606 73.8155C187.877 73.1316 187.464 72.1765 187.464 71.1768V32.6739C187.464 31.8134 187.771 30.981 188.329 30.3262L192.159 25.8349C192.718 25.1802 193.024 24.3478 193.024 23.4873Z" fill="#DB544C" stroke="#FCF006" stroke-width="4"/>
</svg>
