<svg width="440" height="231" viewBox="0 0 440 231" fill="none" xmlns="http://www.w3.org/2000/svg">
<path d="M417.553 228.096L436.998 203.922C437.152 203.729 437.236 203.49 437.236 203.244V189.794C437.236 189.643 437.205 189.493 437.143 189.355L430.84 175.174C430.779 175.035 430.747 174.886 430.747 174.735V80.6055C430.747 80.4246 430.793 80.2465 430.879 80.0876L437.104 68.675C437.191 68.5161 437.236 68.338 437.236 68.1571V4.08153C437.236 3.48422 436.752 3 436.155 3H4.08167C3.48434 3 3.00012 3.48422 3.00012 4.08154V124.795C3.00012 125.064 3.1004 125.324 3.2814 125.523L13.5342 136.801C13.7152 137 13.8155 137.259 13.8155 137.528V155.669C13.8155 155.908 13.7366 156.14 13.5912 156.329L3.22443 169.806C3.07898 169.995 3.00012 170.226 3.00012 170.465V227.418C3.00012 228.016 3.48434 228.5 4.08167 228.5H416.71C417.037 228.5 417.347 228.352 417.553 228.096Z" fill="#1C1C1C" stroke="#DB544C" stroke-width="4.32614"/>
</svg>
