<svg width="340" height="666" viewBox="0 0 340 666" fill="none" xmlns="http://www.w3.org/2000/svg">
<g filter="url(#filter0_d_0_2470)">
<path d="M67.2098 535.469L67.6025 626.685L296.988 625.697L296.965 620.376L295.832 357.372L274.032 339.223L272.975 93.7012L249 67.8599L95.608 67.8599L75.5418 48.9428L45.9998 49.0699L46.8671 250.504L58.2018 259.577L58.5356 337.11L47.2893 348.56L48.0256 519.589L67.2098 535.469Z" fill="#2C2C2C" fill-opacity="0.3" shape-rendering="crispEdges"/>
<path d="M67.2098 535.469L67.6025 626.685L296.988 625.697L296.965 620.376L295.832 357.372L274.032 339.223L272.975 93.7012L249 67.8599L95.608 67.8599L75.5418 48.9428L45.9998 49.0699L46.8671 250.504L58.2018 259.577L58.5356 337.11L47.2893 348.56L48.0256 519.589L67.2098 535.469Z" stroke="#FCF006" stroke-width="1.06883" shape-rendering="crispEdges"/>
</g>
<defs>
<filter id="filter0_d_0_2470" x="0.625725" y="0.36351" width="338.53" height="665.282" filterUnits="userSpaceOnUse" color-interpolation-filters="sRGB">
<feFlood flood-opacity="0" result="BackgroundImageFix"/>
<feColorMatrix in="SourceAlpha" type="matrix" values="0 0 0 0 0 0 0 0 0 0 0 0 0 0 0 0 0 0 127 0" result="hardAlpha"/>
<feOffset dx="-1.60324" dy="-4.80973"/>
<feGaussianBlur stdDeviation="21.6171"/>
<feComposite in2="hardAlpha" operator="out"/>
<feColorMatrix type="matrix" values="0 0 0 0 0.988235 0 0 0 0 0.941176 0 0 0 0 0.0235294 0 0 0 0.24 0"/>
<feBlend mode="normal" in2="BackgroundImageFix" result="effect1_dropShadow_0_2470"/>
<feBlend mode="normal" in="SourceGraphic" in2="effect1_dropShadow_0_2470" result="shape"/>
</filter>
</defs>
</svg>
