<svg width="32" height="216" viewBox="0 0 32 216" fill="none" xmlns="http://www.w3.org/2000/svg">
<path d="M0.5 115.066V1.08153C0.5 0.48422 0.984219 0 1.58153 0H30.4185C31.0158 0 31.5 0.484216 31.5 1.08153V204.111C31.5 204.362 31.4124 204.606 31.2523 204.8L22.3244 215.607C22.119 215.856 21.8132 216 21.4906 216H1.58153C0.98422 216 0.5 215.516 0.5 214.918V163.854C0.5 163.624 0.573346 163.4 0.70938 163.214L11.2906 148.786C11.4267 148.6 11.5 148.376 11.5 148.146V127.434C11.5 127.155 11.3925 126.888 11.2 126.686L0.799972 115.814C0.607451 115.612 0.5 115.345 0.5 115.066Z" fill="#DB544C" fill-opacity="0.6"/>
</svg>
