<svg width="96" height="68" viewBox="0 0 96 68" fill="none" xmlns="http://www.w3.org/2000/svg">
<path d="M83.778 8.56095C72.137 -0.149051 60.985 0.094948 60.985 0.094948L59.845 1.39695C73.684 5.54895 80.115 11.6539 80.115 11.6539C60.316 0.752948 35.096 0.830948 14.502 11.6539C14.502 11.6539 21.177 5.22295 35.83 1.07095L35.016 0.0939485C35.016 0.0939485 23.945 -0.150052 12.223 8.55995C12.223 8.55995 0.500977 29.6439 0.500977 55.6119C0.500977 55.6119 7.33898 67.3339 25.33 67.9039C25.33 67.9039 28.342 64.3219 30.784 61.2289C20.445 58.1359 16.538 51.705 16.538 51.705C23.033 55.769 29.601 58.313 37.785 59.927C51.101 62.668 67.664 59.85 80.034 51.705C80.034 51.705 75.964 58.2989 65.3 61.3109C67.742 64.3229 70.673 67.8229 70.673 67.8229C88.662 67.2539 95.5 55.5319 95.5 55.6129C95.5 29.6449 83.778 8.56095 83.778 8.56095ZM32.818 48.0429C28.259 48.0429 24.515 44.054 24.515 39.088C24.848 27.196 40.872 27.233 41.122 39.088C41.121 44.054 37.458 48.0429 32.818 48.0429ZM62.531 48.0429C57.972 48.0429 54.228 44.054 54.228 39.088C54.594 27.219 70.418 27.214 70.835 39.088C70.834 44.054 67.171 48.0429 62.531 48.0429Z" fill="#D8A353"/>
</svg>
