<svg width="288" height="129" viewBox="0 0 288 129" fill="none" xmlns="http://www.w3.org/2000/svg">
<g filter="url(#filter0_b_0_3881)">
<path d="M38.8127 1.19922H2.12217C1.34897 1.19922 0.722168 1.82602 0.722168 2.59922V126.499C0.722168 127.272 1.34897 127.899 2.12217 127.899H66.9516C67.3377 127.899 67.7066 127.74 67.9712 127.459L72.4266 122.724C72.6911 122.443 73.0601 122.284 73.4461 122.284H114.177C114.578 122.284 114.959 122.455 115.225 122.755L119.363 127.427C119.629 127.727 120.01 127.899 120.411 127.899H270.53C270.936 127.899 271.321 127.723 271.587 127.417L286.679 110.044C286.9 109.789 287.022 109.463 287.022 109.126V16.638C287.022 15.8648 286.395 15.238 285.622 15.238H58.9975C58.7013 15.238 58.4127 15.144 58.1733 14.9696L39.637 1.4676C39.3975 1.29319 39.1089 1.19922 38.8127 1.19922Z" fill="url(#paint0_linear_0_3881)" fill-opacity="0.42"/>
<path d="M38.8127 1.19922H2.12217C1.34897 1.19922 0.722168 1.82602 0.722168 2.59922V126.499C0.722168 127.272 1.34897 127.899 2.12217 127.899H66.9516C67.3377 127.899 67.7066 127.74 67.9712 127.459L72.4266 122.724C72.6911 122.443 73.0601 122.284 73.4461 122.284H114.177C114.578 122.284 114.959 122.455 115.225 122.755L119.363 127.427C119.629 127.727 120.01 127.899 120.411 127.899H270.53C270.936 127.899 271.321 127.723 271.587 127.417L286.679 110.044C286.9 109.789 287.022 109.463 287.022 109.126V16.638C287.022 15.8648 286.395 15.238 285.622 15.238H58.9975C58.7013 15.238 58.4127 15.144 58.1733 14.9696L39.637 1.4676C39.3975 1.29319 39.1089 1.19922 38.8127 1.19922Z" stroke="#BD4842" stroke-width="1.4"/>
</g>
<defs>
<filter id="filter0_b_0_3881" x="-24.4778" y="-24.0007" width="336.7" height="177.1" filterUnits="userSpaceOnUse" color-interpolation-filters="sRGB">
<feFlood flood-opacity="0" result="BackgroundImageFix"/>
<feGaussianBlur in="BackgroundImageFix" stdDeviation="12.25"/>
<feComposite in2="SourceAlpha" operator="in" result="effect1_backgroundBlur_0_3881"/>
<feBlend mode="normal" in="SourceGraphic" in2="effect1_backgroundBlur_0_3881" result="shape"/>
</filter>
<linearGradient id="paint0_linear_0_3881" x1="0.722168" y1="76.3067" x2="285.158" y2="77.1327" gradientUnits="userSpaceOnUse">
<stop stop-color="#DB544C"/>
<stop offset="1" stop-color="#35131B" stop-opacity="0.47"/>
</linearGradient>
</defs>
</svg>
